<svg width="79" height="95" viewBox="0 0 79 95" fill="none" xmlns="http://www.w3.org/2000/svg">
<g clip-path="url(#clip0_393_9452)">
<path d="M13.8094 43.789C14.2537 44.3097 14.4799 44.9831 14.4406 45.6677C14.4011 46.3678 14.0919 47.0249 13.5784 47.5L13.5015 47.5618C12.9835 48.015 12.3089 48.2455 11.6233 48.2035C10.9325 48.1569 10.2854 47.8472 9.81433 47.3376L9.73735 47.2526C6.68463 43.8661 4.19937 40.0044 2.37849 35.8182C0.765393 32.0794 -0.0450661 28.041 -5.37804e-05 23.9664C0.0886958 19.8722 1.03279 15.8423 2.77107 12.1378C4.73578 7.99249 7.359 4.19586 10.5379 0.896776C10.7805 0.639275 11.0712 0.432314 11.3935 0.28772C11.7158 0.143127 12.0633 0.0637356 12.4161 0.0540841C12.7673 0.0483204 13.116 0.113824 13.4414 0.246669C13.7668 0.379515 14.0621 0.576968 14.3097 0.827196L14.3559 0.873583C14.8273 1.36592 15.1013 2.01554 15.1256 2.69813C15.138 3.04882 15.0804 3.39845 14.9561 3.72642C14.8319 4.05439 14.6435 4.35404 14.4021 4.60771H14.3636C11.6515 7.44997 9.40196 10.7034 7.6975 14.2484C6.21818 17.3007 5.40464 20.6349 5.31126 24.0283C5.28816 27.4312 5.98065 30.8007 7.34341 33.9164C8.90526 37.4498 11.012 40.7137 13.5861 43.588C13.6425 43.6225 13.6943 43.664 13.7401 43.7117L13.8094 43.789ZM11.5071 90.5885H19.7442L35.5165 31.0327C35.1381 30.803 34.7779 30.5445 34.4388 30.2596L33.8692 29.7725C32.3845 28.2577 31.5546 26.2158 31.5599 24.0901C31.5593 23.0443 31.766 22.0088 32.168 21.0441C32.5622 20.0688 33.1398 19.179 33.8692 18.4232C34.6124 17.6819 35.4942 17.0954 36.4638 16.6974C37.4334 16.2994 38.4717 16.0977 39.5192 16.1039C40.5751 16.0986 41.6216 16.3035 42.5982 16.7069C43.5711 17.1098 44.4572 17.6978 45.2077 18.4387C45.9458 19.1852 46.5297 20.0708 46.926 21.0446C47.3223 22.0184 47.5231 23.0613 47.5169 24.1133C47.5155 24.7061 47.451 25.297 47.3245 25.876C47.1966 26.4411 47.0082 26.9907 46.7626 27.515C46.176 28.8069 45.2466 29.9116 44.0761 30.708L61.4803 90.5885H68.553V94.9845H11.5071V90.5885ZM28.7888 90.5885H57.2697L53.8366 75.6876L28.7888 90.5885ZM36.4864 42.382L44.8921 47.0206L40.1966 31.9681C39.9605 31.9681 39.7039 31.9681 39.4268 31.9681L36.494 42.3974L36.4864 42.382ZM47.032 53.8782L33.0455 63.7431L52.1124 70.1367L47.0397 53.9013L47.032 53.8782ZM24.7091 87.9599L49.0334 73.3606L29.5586 66.851L24.7014 87.9754L24.7091 87.9599ZM31.5599 59.8543L43.9453 51.1259L35.3625 46.3867L31.5137 59.8388L31.5599 59.8543ZM24.1241 34.8673C24.5271 35.4079 24.7088 36.0828 24.6321 36.7537C24.601 37.0995 24.5004 37.4354 24.3364 37.7411C24.1723 38.0467 23.9482 38.3157 23.6776 38.5319L23.5699 38.6169C23.0344 39.0157 22.3705 39.2003 21.707 39.1349C21.3627 39.1006 21.0286 38.9974 20.7246 38.8314C20.4205 38.6654 20.1526 38.4401 19.9366 38.1685L19.8904 38.1144C18.2088 36.0661 16.8533 33.7685 15.8723 31.3033C14.9673 28.9898 14.4924 26.5293 14.4713 24.0438C14.4637 21.5831 14.9208 19.1434 15.8184 16.8538C16.7958 14.3858 18.1572 12.0894 19.8519 10.0504C20.2939 9.49886 20.936 9.14623 21.6368 9.07011C22.3377 8.994 23.0399 9.20062 23.5891 9.64454C24.1383 10.0885 24.4894 10.7333 24.5652 11.4372C24.6409 12.1411 24.4352 12.8464 23.9932 13.398C22.6893 14.9734 21.6351 16.7414 20.868 18.6397C19.4566 22.0815 19.4566 25.9441 20.868 29.386C21.6479 31.3392 22.7199 33.1615 24.0471 34.79L24.1241 34.906V34.8673ZM69.201 47.3299C68.7299 47.8317 68.0853 48.1332 67.3997 48.1726C67.0506 48.1941 66.7007 48.1457 66.3703 48.0302C66.04 47.9148 65.7357 47.7345 65.4753 47.5L65.4292 47.4536C64.93 46.9833 64.6297 46.3385 64.5901 45.6522C64.5668 45.3002 64.614 44.9471 64.7291 44.6138C64.8441 44.2805 65.0246 43.9737 65.2598 43.7117L65.306 43.6653C67.9274 40.7655 70.0712 37.464 71.6565 33.8855C73.0204 30.7593 73.7128 27.3795 73.6886 23.9664C73.6046 20.568 72.8017 17.2263 71.3332 14.1634C69.6126 10.6149 67.3418 7.36337 64.6055 4.5304L64.5439 4.46855C64.0957 3.95491 63.8614 3.28776 63.8896 2.60535C63.9069 1.91893 64.1818 1.26443 64.6594 0.773078L64.721 0.711229C64.972 0.474369 65.2672 0.289615 65.5895 0.16756C65.9118 0.0455057 66.2549 -0.0114476 66.5992 -3.37955e-05C67.299 0.0226327 67.9621 0.319568 68.4466 0.827196L68.5005 0.881314C71.6571 4.17076 74.2596 7.95438 76.2057 12.0837C77.9441 15.7827 78.8882 19.8075 78.9768 23.8969C79.0238 27.9841 78.2134 32.0355 76.5983 35.7873C74.8081 39.9165 72.3618 43.726 69.3549 47.067C69.3187 47.1599 69.2636 47.2441 69.1933 47.3144L69.201 47.3299ZM57.5853 38.3309C57.1473 38.7667 56.5744 39.0394 55.9612 39.104C55.2623 39.1788 54.5622 38.9732 54.0137 38.5319C53.4685 38.088 53.1199 37.4459 53.0435 36.7452C52.9671 36.0445 53.1691 35.3419 53.6057 34.79C54.9226 33.1911 55.9894 31.4002 56.7694 29.4787C58.1836 26.0107 58.1836 22.1232 56.7694 18.6552V18.6165C55.9994 16.7339 54.9453 14.9816 53.6442 13.4212L53.5749 13.3361C53.2004 12.798 53.036 12.1404 53.1131 11.4884C53.1479 11.1416 53.2509 10.8052 53.4161 10.4987C53.5813 10.1921 53.8053 9.92154 54.0753 9.70252L54.1291 9.66387C54.6694 9.23637 55.354 9.03674 56.0381 9.10723C56.7192 9.17867 57.3446 9.51772 57.7778 10.0504L57.824 10.1045C59.5036 12.1387 60.852 14.4271 61.819 16.8847C62.7166 19.1743 63.1737 21.614 63.1661 24.0747C63.1449 26.5527 62.6701 29.0056 61.7651 31.311C60.7853 33.8038 59.4245 36.1279 57.7316 38.1994C57.6893 38.2472 57.643 38.2912 57.593 38.3309H57.5853Z" fill="#D8E0E9"/>
</g>
<defs>
<clipPath id="clip0_393_9452">
<rect width="79" height="95" fill="white"/>
</clipPath>
</defs>
</svg>
